<?xml version="1.0" encoding="UTF-8" standalone="no"?>
<svg
	viewBox="0 0 43.080002 35.52"
	version="1.1"
	id="svg6"
	width="43.080002"
	height="35.52"
	xmlns="http://www.w3.org/2000/svg"
	xmlns:svg="http://www.w3.org/2000/svg">
	<defs
		id="defs10" />
	<g
		id="g4"
		transform="translate(0.5,-1.34)">
		<path
			d="m 186.36492,520.00352 h 20.8 v -4.4 h -20.8 z m 31.2,-6 c 6.8,0 10.88,-3.32 10.88,-8.56 0,-10 -14.64,-6.52 -14.64,-12.12 0,-2.16 1.96,-3.32 5.4,-3.32 2.32,0 4.84,0.44 6.8,1.2 l 1.48,-4.12 c -2.32,-1.04 -5.24,-1.6 -7.96,-1.6 -6.64,0 -11.08,3.4 -11.08,8.6 0,9.48 14.56,6.4 14.56,12.04 0,2 -1.76,3.28 -5.2,3.28 -2.52,0 -5.6,-0.6 -8.32,-1.72 l -1.48,4.16 c 2.96,1.32 6.36,2.16 9.56,2.16 z"
			transform="translate(-186.36492,-483.64352)"
			aria-label="_Suffiks"
			fill="currentColor"
			id="path2"
			style="fill:#ffffff;stroke:#000000;stroke-opacity:1" />
	</g>
</svg>
